<svg width="553" height="206" viewBox="0 0 553 206" fill="none" xmlns="http://www.w3.org/2000/svg">
<g clip-path="url(#clip0)">
<path d="M314.412 76.7164L314.421 76.7273C317.536 80.5944 321.84 82.5 327.4 82.5C331.414 82.5 334.784 81.5803 337.137 79.4723C339.366 77.7818 340.7 75.0995 340.7 72.3C340.7 69.6072 339.472 67.0266 337.345 65.335C336.203 64.3167 334.396 63.371 332.024 62.4879C329.615 61.591 326.542 60.7293 322.815 59.9233C310.761 57.2333 302.272 53.6791 297.37 49.2574L297.357 49.2463L297.345 49.2355C292.472 45.127 289.709 39.1168 289.9 32.7298L289.9 32.7149V32.7C289.9 28.2996 291.24 23.8984 293.723 20.268C296.62 16.1172 300.566 12.8532 305.262 11.0324L305.28 11.0252L305.298 11.0174C310.421 8.79412 317.667 7.60001 326.9 7.60001C338.202 7.60001 346.659 9.68625 352.417 13.8129L352.427 13.8192C357.91 17.6578 361.354 23.8144 362.57 32.3635L338.517 33.7512C337.744 30.0457 336.303 27.1841 333.937 25.229C331.406 23.1384 328.155 22.2 324.1 22.2C320.776 22.2 318.118 22.924 316.273 24.421C314.579 25.7776 313.391 27.8573 313.5 30.2252C313.509 32.0563 314.473 33.7121 315.86 34.7698C316.663 35.4947 317.904 36.1133 319.466 36.6674C321.075 37.2384 323.122 37.774 325.595 38.2787C337.68 40.8758 346.17 43.4541 351.346 46.091C356.529 48.7313 360.161 51.9158 362.339 55.608L362.343 55.6145C364.644 59.4496 365.796 63.8633 365.7 68.3787L365.7 68.3894V68.4C365.7 73.8128 364.153 79.214 361.073 83.7372L361.071 83.7414C357.878 88.4818 353.43 92.1559 348.208 94.3799L348.198 94.3842C342.661 96.8131 335.607 98.1 327.1 98.1C311.964 98.1 301.814 95.1998 296.207 89.5929C290.699 84.085 287.345 77.2403 286.488 68.9318L310.848 67.3572C311.487 71.2979 312.597 74.3961 314.412 76.7164ZM33 61.2V96.5H7.3V9.20001H52.4C60.8716 9.20001 67.3405 9.90092 71.6838 11.3487L71.6837 11.3488L71.6968 11.3529C75.883 12.6849 79.5954 15.4459 82.0679 19.1547L82.0709 19.1591C84.8501 23.28 86.1964 28.0761 86.1002 33.0808L86.0997 33.1074L86.1006 33.1341C86.3884 41.5761 82.0707 49.6216 74.7049 53.8311C71.8025 55.4756 68.6109 56.6356 65.3262 57.2152L65.2304 59.163C67.5987 59.8261 69.9896 60.9667 72.1113 62.3107C73.7097 63.6353 75.0435 65.157 76.3056 66.8075L76.327 66.8353L76.3502 66.8616C77.7931 68.4969 79.0499 70.3312 80.1177 72.2708L92.7567 96.7H63.5974L49.0806 69.7261L49.0789 69.7229C47.1838 66.232 45.4929 63.7414 43.7914 62.4936L43.7825 62.4871L43.7735 62.4808C41.5942 60.9553 38.9911 60.2 36.4 60.2H34H33V61.2ZM33 44.4V45.4H34H45.7H45.7399L45.7797 45.3968C48.323 45.1934 50.7654 44.7873 53.2049 44.1795C55.2517 43.8275 57.0619 42.6861 58.3032 40.9957C61.3012 36.994 60.8599 31.3236 57.1847 27.8712L57.163 27.8508L57.1402 27.8318C56.0722 26.9418 54.5773 26.318 52.7692 25.9118C50.9508 25.5033 48.7479 25.3 46.2 25.3H34H33V26.3V44.4ZM11.8698 155.557L11.8574 155.546L11.8446 155.535C6.97175 151.427 4.2089 145.417 4.39955 139.03L4.4 139.015V139C4.4 134.6 5.73999 130.199 8.22268 126.569C11.1198 122.417 15.0653 119.153 19.7615 117.332L19.78 117.325L19.7981 117.317C24.9212 115.094 32.1671 113.9 41.4 113.9C52.702 113.9 61.1595 115.986 66.9175 120.113C72.4078 124.048 75.7614 130.12 76.9702 138.664L52.9172 140.051C52.145 136.35 50.7069 133.491 48.3454 131.536C45.9017 129.43 42.5356 128.498 38.4872 128.6C35.1863 128.602 32.5216 129.319 30.6699 130.923C28.845 132.305 27.7917 134.396 27.9001 136.725C27.9089 138.556 28.8733 140.212 30.2601 141.27C31.0631 141.995 32.3039 142.613 33.8656 143.167C35.4747 143.738 37.5225 144.274 39.995 144.779C52.0801 147.376 60.57 149.954 65.7461 152.591C70.9287 155.231 74.5612 158.416 76.7386 162.108L76.7425 162.115C79.0445 165.951 80.2 170.372 80.2 174.8C80.2 180.196 78.5619 185.504 75.5677 190.046C72.3754 194.784 67.9282 198.457 62.7081 200.68L62.6983 200.684C57.1606 203.113 50.1068 204.4 41.6 204.4C26.4671 204.4 16.3176 201.501 10.7101 195.896C5.21011 190.301 2.03103 183.455 1.09842 175.131L25.448 173.557C26.0865 177.497 27.1963 180.595 29.0116 182.915C32.0264 186.791 36.4358 188.8 42 188.8C46.0205 188.8 49.3952 187.877 51.7483 185.762C53.9478 183.992 55.3 181.423 55.3 178.6C55.3 175.907 54.0717 173.327 51.9448 171.635C50.8024 170.616 48.9949 169.671 46.6098 168.787C44.1884 167.89 41.0899 167.029 37.313 166.223C25.2601 163.533 16.7718 159.979 11.8698 155.557Z" fill="white" stroke="#F57272" stroke-width="2"/>
<path d="M116.1 132.5C109.486 132.5 104.361 135.152 100.866 140.548C98.2017 144.497 96.9 150.638 96.9 158.7C96.9 168.625 98.3882 175.74 101.623 179.73C104.846 183.705 109.355 185.6 115.1 185.6C120.589 185.6 124.89 184.041 127.832 180.881L127.843 180.869L127.854 180.857C130.518 177.799 132.493 173.679 133.738 168.467L156.02 175.189C154.686 180.81 152.136 186.161 148.696 190.905C145.404 195.26 141.043 198.654 136.092 200.887C131.057 203.113 124.606 204.3 116.7 204.3C107.083 204.3 99.2404 202.91 93.3172 200.191L93.3116 200.189C87.3329 197.489 82.1689 192.645 77.7447 185.665C73.3755 178.771 71.2 169.874 71.2 158.9C71.2 144.272 75.0518 133.162 82.7071 125.507C90.3721 117.842 101.19 113.9 115.4 113.9C126.57 113.9 135.145 116.174 141.424 120.517C147.374 124.796 151.941 131.252 155.084 139.967L132.686 144.924C132.074 143.046 131.225 141.185 130.132 139.545L130.123 139.532L130.114 139.519C128.516 137.282 126.492 135.581 124.063 134.313C121.59 133.023 118.824 132.5 116.1 132.5ZM190.5 202.8V115.4H216.1V145.7V146.7H217.1H247.3H248.3V145.7V115.4H274.1V202.8H248.3V167.6V166.6H247.3H217.1H216.1V167.6V202.8H190.5Z" fill="white" stroke="#F57272" stroke-width="2"/>
<path d="M357.814 183.637L357.811 183.642C354.504 190.062 349.346 195.319 343.016 198.825C336.498 202.424 328.375 204.3 318.6 204.3C308.601 204.3 300.464 202.715 294.042 199.603C287.419 196.29 281.969 191.13 278.369 184.805L278.369 184.805L278.363 184.795C274.373 177.983 272.3 169.468 272.3 159.1C272.3 144.691 276.341 133.573 284.207 125.707C292.073 117.841 303.192 113.8 317.5 113.8C332.219 113.8 343.336 117.747 351.197 125.511C359.058 133.275 363 144.19 363 158.4C363 168.792 361.218 177.12 357.814 183.637ZM303.129 179.336L303.129 179.336L303.137 179.346C306.651 183.5 311.546 185.6 317.6 185.6C323.736 185.6 328.639 183.611 332.163 179.446C335.708 175.256 337.3 168.037 337.3 158C337.3 149.51 335.59 143.01 331.949 138.938C328.335 134.795 323.451 132.804 317.419 132.8C312.01 132.594 306.832 134.93 303.246 139.043C299.605 143.22 297.9 150.024 297.9 159.2C297.9 168.284 299.608 175.069 303.129 179.336ZM478.814 183.637L478.811 183.642C475.504 190.062 470.347 195.318 464.017 198.825C457.499 202.424 449.375 204.3 439.6 204.3C429.601 204.3 421.464 202.715 415.042 199.603C408.419 196.29 402.969 191.13 399.369 184.805L399.363 184.795C395.373 177.983 393.3 169.468 393.3 159.1C393.3 144.691 397.341 133.573 405.207 125.707C413.073 117.841 424.192 113.8 438.5 113.8C453.223 113.8 464.435 117.749 472.193 125.507C479.961 133.276 484 144.196 484 158.4C484 168.792 482.218 177.12 478.814 183.637ZM424.129 179.336L424.137 179.346C427.651 183.5 432.546 185.6 438.6 185.6C444.736 185.6 449.639 183.611 453.163 179.446C456.708 175.256 458.3 168.037 458.3 158C458.3 149.51 456.59 143.01 452.949 138.938C449.335 134.795 444.451 132.804 438.419 132.8C433.021 132.594 427.736 134.922 424.241 139.048C420.603 143.226 418.9 150.028 418.9 159.2C418.9 168.284 420.608 175.069 424.129 179.336Z" fill="white" stroke="#F57272" stroke-width="2"/>
<path d="M509.7 182.8H551.8V202.8H483V115.4H508.7V181.8V182.8H509.7Z" fill="white" stroke="#F57272" stroke-width="2"/>
<path d="M455.663 98.6528C483.45 77.7128 492.019 42.2161 474.801 19.3688C457.584 -3.47857 421.101 -5.02478 393.313 15.9152C365.526 36.8552 356.957 72.3519 374.175 95.1992C391.392 118.047 427.876 119.593 455.663 98.6528Z" fill="white"/>
<path d="M455.663 98.6528C483.45 77.7128 492.019 42.2161 474.801 19.3688C457.584 -3.47857 421.101 -5.02478 393.313 15.9152C365.526 36.8552 356.957 72.3519 374.175 95.1992C391.392 118.047 427.876 119.593 455.663 98.6528Z" fill="white"/>
<path d="M455.663 98.6528C483.45 77.7128 492.019 42.2161 474.801 19.3688C457.584 -3.47857 421.101 -5.02478 393.313 15.9152C365.526 36.8552 356.957 72.3519 374.175 95.1992C391.392 118.047 427.876 119.593 455.663 98.6528Z" fill="white" stroke="#D22626" stroke-width="4" stroke-miterlimit="10"/>
<path d="M455.663 98.6528C483.45 77.7128 492.019 42.2161 474.801 19.3688C457.584 -3.47857 421.101 -5.02478 393.313 15.9152C365.526 36.8552 356.957 72.3519 374.175 95.1992C391.392 118.047 427.876 119.593 455.663 98.6528Z" stroke="#F57272" stroke-width="4" stroke-miterlimit="10"/>
<path d="M396.384 50.7121L406.384 43.7121L418.684 61.2121C420.784 64.0121 422.384 67.0121 423.584 70.3121C424.284 72.8121 424.084 75.5121 423.084 77.9121C421.784 80.9121 419.684 83.4121 416.884 85.2121C413.584 87.5121 410.784 88.8121 408.384 89.2121C406.084 89.6121 403.684 89.2121 401.484 88.2121C399.084 87.0121 396.984 85.3121 395.384 83.1121L403.984 75.1121C404.684 76.2121 405.584 77.2121 406.584 78.0121C407.284 78.5121 408.084 78.8121 408.984 78.8121C409.684 78.8121 410.384 78.5121 410.884 78.1121C411.884 77.5121 412.584 76.3121 412.484 75.1121C412.184 73.4121 411.484 71.7121 410.384 70.4121L396.384 50.7121ZM426.384 61.8121L435.484 54.6121C436.484 55.8121 437.784 56.7121 439.184 57.2121C441.184 57.8121 443.284 57.4121 444.984 56.1121C446.184 55.3121 447.184 54.2121 447.584 52.8121C448.184 51.0121 447.184 49.0121 445.384 48.4121C445.084 48.3121 444.784 48.2121 444.484 48.2121C443.284 48.1121 441.184 48.6121 438.084 49.9121C432.984 52.0121 428.984 52.8121 425.984 52.5121C423.084 52.2121 420.384 50.7121 418.784 48.2121C417.584 46.5121 416.984 44.5121 416.884 42.5121C416.884 40.2121 417.484 37.9121 418.784 36.0121C420.684 33.3121 422.984 31.0121 425.784 29.2121C429.984 26.3121 433.684 24.9121 436.884 24.9121C440.084 24.9121 443.084 26.4121 445.884 29.5121L436.884 36.6121C435.084 34.3121 431.684 33.8121 429.384 35.6121L429.084 35.9121C428.084 36.5121 427.384 37.4121 426.984 38.5121C426.684 39.3121 426.884 40.2121 427.384 40.9121C427.784 41.4121 428.384 41.8121 429.084 41.8121C429.884 41.9121 431.284 41.5121 433.284 40.6121C438.284 38.5121 442.084 37.3121 444.684 36.9121C446.884 36.5121 449.184 36.7121 451.284 37.6121C453.184 38.4121 454.784 39.8121 455.884 41.5121C457.284 43.5121 458.084 45.9121 458.184 48.4121C458.284 51.0121 457.584 53.5121 456.184 55.7121C454.384 58.4121 452.084 60.7121 449.384 62.5121C443.884 66.3121 439.384 67.9121 435.784 67.3121C431.884 66.7121 428.684 64.7121 426.384 61.8121Z" fill="#F57272"/>
</g>
<defs>
<clipPath id="clip0">
<rect width="552.8" height="205.3" fill="white"/>
</clipPath>
</defs>
</svg>
